<svg xmlns="http://www.w3.org/2000/svg" fill="none" viewBox="0 0 1000 1000" height="1000" width="1000">
<path fill="#FAF9F5" d="M940.192 170.792C939.603 182.11 941.108 193.391 941.199 204.617C941.326 219.915 939.648 235.232 940.174 250.557C940.474 259.127 941.843 267.787 942.115 276.375C943.484 318.533 943.566 361.055 943.656 403.268C943.72 429.548 940.882 455.946 944.128 482.108C944.046 485.064 944.237 488.048 944.128 491.004C943.248 515.516 940.927 539.855 940.156 564.403C939.848 574.206 938.406 584.489 938.415 594.083C938.424 603.406 939.422 612.683 939.204 622.222C938.859 637.231 935.867 652.357 935.395 666.893C935.178 673.604 936.828 680.813 935.223 687.678C926.69 688.331 918.682 685.011 910.276 684.204C892.284 682.481 873.966 686.571 856.31 686.027C842.499 685.601 828.208 684.839 814.369 683.715C771.141 680.205 726.797 678.519 683.332 680.74C664.715 681.693 646.152 683.978 627.507 684.73C619.01 685.075 612.508 683.932 603.993 685.438C594.626 687.097 593.021 685.891 583.979 685.22C569.552 684.15 555.831 684.232 541.476 684.213C488.726 684.141 435.785 683.896 383.27 681.738C368.081 681.112 352.638 679.398 337.321 679.407C290.193 679.435 243.21 685.011 196.436 686.217C170.936 686.879 145.127 682.871 119.836 688.612L102.742 688.167C103.44 684.594 100.593 680.577 97.0196 679.806C92.6396 678.863 82.2473 679.19 77.2779 679.244C75.1377 679.271 61.7257 680.622 61.1816 680.024L60.5922 612.329C54.471 516.005 55.8676 419.319 55.4867 322.741C55.3235 282.913 56.2122 243.439 54.7612 203.62L56.729 175.943C67.8649 174.42 79.0009 174.773 90.1277 174.456C188.637 171.636 286.765 175.091 384.295 173.767C501.503 172.171 618.802 172.561 735.738 172.243C793.186 172.089 851.178 173.087 908.789 171.237C910.974 171.164 913.323 172.579 915.463 170.792H940.192Z"/>
<path fill="#141413" d="M949.061 162.903C949.016 164.109 948.2 166.612 948.082 168.099C947.674 173.087 947.928 180.305 944.826 184.613C944.536 185.021 937.771 190.28 937.055 190.679C929.927 194.706 923.87 192.103 916.86 191.831C903.375 191.305 890.081 192.221 876.687 190.534C871.654 189.899 865.569 187.932 860.654 187.388C852.148 186.444 843.207 187.124 834.637 186.118C813.036 183.57 795.19 180.187 772.809 181.167C737.57 182.717 702.303 184.232 667.055 185.157C633.738 186.036 601.146 186.725 568.165 185.882C550.862 185.438 533.469 183.207 515.84 184.722C501.014 185.991 487.728 186.825 472.72 186.644C418.329 185.964 362.413 179.861 308.112 182.654C299.742 183.08 290.937 184.839 282.44 185.166C270.705 185.619 258.49 184.513 246.801 185.166C230.941 186.055 215.026 188.766 198.785 189.401C179.723 190.144 156.327 191.378 137.555 190.616C129.784 190.308 122.112 188.539 114.322 188.557C98.3166 188.594 83.109 190.589 66.8858 188.594C62.4604 188.049 57.2824 186.907 54.8521 182.835C53.3286 180.287 52.1135 175.744 51.8142 173.957C50.0731 163.737 52.3221 149.047 51.2792 138.4C51.4878 129.65 50.7986 121.025 55.6139 113.1C57.0285 110.769 59.8578 110.47 62.4242 110.996C63.5214 111.223 86.7635 110.044 96.6299 110.189C99.8945 110.234 103.331 111.313 106.442 111.468C115.809 111.939 124.841 108.52 134.136 108.502C150.124 108.475 166.139 112.284 182.072 112.746C200.254 113.272 217.828 110.289 235.448 109.971C247.119 109.763 257.701 110.561 269.644 110.062C288.652 109.273 304.693 110.125 323.438 110.506C333.422 110.706 343.152 109.228 353.1 108.983C383.225 108.221 413.613 109.899 443.593 109.953C444.79 109.953 452.371 110.842 452.734 110.488C451.682 97.9285 452.598 85.8315 458.574 74.5505C464.749 62.8796 470.453 57.5926 482.904 52.9043C495.355 48.216 514.525 52.7863 526.142 60.0682C539.318 68.3204 539.028 91.8074 541.848 105.664C541.966 106.253 554.181 109.5 559.785 109.518C586.065 109.618 612.627 110.37 638.861 110.524C669.875 110.706 701.442 110.633 732.274 110.96C784.526 111.504 837.303 109.436 889.51 109.046C900.963 108.965 923.008 110.506 932.983 108.493C934.117 108.266 941.798 108.203 942.931 109.464C946.903 113.871 946.658 138.192 947.103 144.848C947.411 149.5 949.016 155.821 949.07 160.427C949.079 161.244 949.098 162.087 949.07 162.903H949.061ZM518.96 109.998C518.497 102.345 519.069 94.6731 518.461 87.0194C518.18 83.4556 517.382 73.5709 515.514 71.1769C512.05 66.7425 501.639 65.8086 496.389 65.6907C490.395 65.5547 487.411 65.3642 482.868 69.6898C473.664 78.4498 472.711 98.9442 471.578 110.914L518.96 109.989V109.998ZM926.817 131.264C921.185 132.089 915.137 130.302 909.324 130.33C885.864 130.438 862.114 132.57 838.546 132.27C784.943 131.572 731.458 131.581 677.891 129.804C633.946 128.344 586.981 123.166 543.263 125.533C537.559 125.841 534.149 126.539 528.618 126.321C508.286 125.542 487.502 129.622 466.853 129.305C416.007 128.516 364.345 127.926 313.553 125.841C290.892 124.907 269.499 126.929 247.3 126.349C223.133 125.714 198.893 126.176 174.608 125.342C156.934 124.734 141.446 121.787 123.445 124.571C110.187 126.621 99.0783 126.829 85.6754 127.337C79.7175 127.564 73.9863 126.793 68.11 126.33C69.2889 140.604 68.8627 154.923 69.6244 169.314C70.0597 169.759 80.5155 169.46 82.1115 169.296C94.5623 168.045 105.834 165.234 118.766 166.385C130.11 167.401 139.314 168.825 150.886 169.323C183.368 170.729 215.815 171.037 248.261 170.339C260.567 170.076 271.857 170.874 283.945 169.886C308.529 167.882 329.296 168.698 353.517 168.652C389.364 168.58 427.37 165.85 463.362 164.417C475.042 163.955 490.113 161.425 501.322 163.003C505.802 163.628 512.023 165.742 516.257 165.905C519.767 166.041 522.578 163.048 525.661 162.894C542.819 162.042 561.091 163.293 578.176 163.057C622.874 162.45 667.844 166.023 712.423 168.054C748.425 169.686 780.753 166.939 816.301 166.358C823.692 166.24 831.246 167.773 838.555 167.728C847.333 167.682 857.009 165.868 865.841 166.077C882.037 166.449 897.517 169.496 914.23 168.861C918.601 168.698 923.443 166.703 928.041 168.335L926.817 131.273V131.264Z"/>
<path fill="#141413" d="M943.466 683.316C941.662 684.177 939.512 688.902 938.179 689.636C934.162 691.849 918.202 689.002 912.734 688.866C903.974 688.648 894.842 689.918 886.046 689.936C846.072 689.99 805.691 688.666 765.419 687.705C726.706 686.78 688.066 684.776 649.217 686.417C624.706 687.451 601.636 690.897 576.589 691.359C559.495 691.677 540.225 693.382 523.721 692.81C519.54 692.665 515.242 692.04 511.061 691.876L508.595 735.876C511.324 735.168 513.936 734.896 516.774 734.86C537.414 734.634 569.162 753.133 581.74 769.256C587.725 776.928 592.858 786.858 595.605 796.18C596.285 795.7 600.384 768.15 601.336 755.808C602.842 736.085 599.713 714.874 626.12 713.35C637.02 712.724 644.865 715.844 650.958 724.994C651.793 723.371 653.144 721.049 654.404 719.779C659.356 714.801 668.805 710.512 675.923 711.156C683.042 711.799 691.358 719.689 693.979 725.973C694.985 725.393 707.481 715.907 716.45 716.596C730.116 717.639 733.652 728.014 736.835 739.721C742.149 759.263 741.188 778.66 741.723 798.728C742.875 842.066 743.882 881.649 730.932 923.826C729.563 928.296 726.334 939.061 724.131 942.634C723.958 942.906 720.113 947.331 719.823 947.494C719.134 947.875 714.963 948.374 713.938 948.401C712.287 948.446 708.125 948.211 707.1 946.932C706.629 946.352 704.316 941.391 704.099 940.548C703.446 938.036 703.537 934.644 704.09 932.114C707.137 917.977 714.799 901.355 718.545 886.755C720.249 880.126 721.419 871.982 722.145 865.145C725.699 831.927 724.185 798.393 721.845 765.212C721.329 757.912 719.968 739.267 715.833 733.545C711.308 727.297 703.419 737.517 702.113 742.278C693.579 773.364 693.806 820.266 694.45 852.812C694.559 858.326 697.216 870.078 693.706 874.286C693.57 874.449 680.739 878.421 678.662 877.006C676.341 875.428 675.334 870.232 675.207 867.611C674.835 860.121 676.386 851.034 676.631 843.344C676.948 833.342 676.558 823.168 677.184 813.247C678.218 796.933 682.525 780.728 682.897 764.396C683.042 757.975 683.078 739.839 681.41 734.361C680.494 731.36 674.944 726 671.988 726.935C663.319 729.691 661.487 741.344 660.018 749.107C657.333 763.226 658.213 777.246 657.406 791.519C656.046 815.559 655.221 845.213 650.958 868.582C650.36 871.864 646.651 874.15 644.221 876.163C640.321 875.447 634.771 876.87 632.323 872.925C627.653 865.417 632.64 848.794 633.674 839.926C636.277 817.645 637.147 795.01 639.124 772.702C639.768 765.475 641.709 757.386 642.099 750.467C642.47 743.847 638.063 730.39 630.464 729.437C626.211 728.911 618.013 729.41 616.435 734.18C612.971 744.654 614.585 759.553 614.44 770.735C614.123 795.382 615.365 820.9 610.323 845.24C609.915 847.208 608.228 849.856 608.074 851.434C607.675 855.396 608.428 860.103 606.75 864.392C605.689 867.095 600.04 871.302 597.401 871.928C595.605 872.354 585.231 869.18 584.624 868.845C581.84 867.294 582.32 864.22 581.758 861.799C580.942 858.28 580.407 853.565 580.262 849.321C579.509 827.647 582.565 793.922 565.072 777.926C557.573 771.07 531.964 756.08 522.206 755.173C519.078 754.883 514.253 755.899 512.34 758.619C511.596 759.671 524.029 766.799 527.983 768.159C546.02 774.362 553.166 790.576 557.908 807.933C561.935 822.66 557.4 834.92 551.996 848.695C543.889 869.353 523.703 890.037 501.331 893.447C481.054 896.53 445.661 884.098 432.983 866.623C409.687 834.512 425.139 790.748 459 773.99C460.932 773.038 471.097 769.964 470.979 767.842C470.898 766.363 466.726 761.548 465.248 761.213C459.58 759.898 449.823 760.388 444.364 762.319C427.959 768.141 416.207 778.642 406.875 793.052C394.551 812.086 391.187 824.945 391.26 847.661C391.314 864.963 392.538 882.502 391.994 899.741C391.704 908.881 390.969 933.076 386.236 939.995C385.846 940.566 381.384 944.203 380.867 944.239C370.312 945.019 370.348 938.145 370.684 929.884C370.965 922.992 371.482 915.946 371.699 909.135C372.57 882.339 374.683 855.786 378.682 829.116C382.763 801.902 399.122 766.753 423.235 751.999C440.818 741.244 475.541 733.563 487.583 755.672C488.336 757.05 488.3 759.055 489.352 760.079L490.839 690.87C487.302 690.988 483.72 690.716 480.184 690.87C464.341 691.532 449.886 689.473 434.262 689.419C420.469 689.373 406.748 691.831 393.191 692.33C374.021 693.028 352.447 692.284 333.304 692.157C285.822 691.831 238.059 689.192 190.496 690.861C160.317 691.922 127.644 695.458 97.582 692.847C88.5863 692.067 86.0925 691.604 76.8246 691.885C70.3952 692.076 63.9567 691.994 57.5363 692.348C44.7046 683.606 53.247 675.318 65.0086 673.105C71.4925 671.89 86.5368 669.949 92.5673 671.155C119.917 676.623 147.412 676.36 175.18 676.152C209.014 675.898 243.292 675.834 277.026 674.084C299.787 672.905 322.567 674.746 345.238 674.955C353.789 675.036 362.359 672.715 370.448 672.552C373.522 672.488 378.219 673.595 381.348 673.595C393.971 673.586 406.676 670.838 419.471 670.801C429.582 670.774 439.385 673.776 449.107 672.642C455.554 671.89 461.621 672.534 467.833 672.089C472.594 671.745 477.835 669.949 482.65 669.605C501.023 668.29 520.764 671.663 539.019 670.112C547.48 669.396 553.111 668.29 561.78 668.616C576.516 669.178 591.996 671.636 606.75 671.491C621.504 671.346 636.776 668.535 651.366 668.743C662.965 668.906 673.257 670.412 685.327 670.112C702.022 669.704 718.935 669.641 735.811 669.605C788.144 669.505 840.641 668.553 893.01 669.605C900.89 669.759 909.179 670.919 917.213 670.647C921.784 670.493 937.381 667.274 940.156 671.4C940.873 673.985 944.79 681.13 943.503 683.316H943.466ZM486.513 815.287C492.916 821.154 501.249 820.701 508.54 816.647C519.159 810.735 518.135 792.217 508.558 786.087C505.756 784.292 505.412 785.434 503.371 785.035C498.547 784.101 494.72 782.269 490.123 784.89C484.183 788.273 481.245 798.837 481.87 805.348C482.197 808.776 483.983 812.975 486.513 815.287ZM534.594 851.851C546.945 836.806 540.352 813.374 533.388 797.332C532.644 795.627 531.701 793.723 530.585 792.226C531.22 801.884 529.923 811.352 525.108 819.867C514.58 838.493 495.174 842.429 476.783 832.68C463.58 825.679 460.787 809.357 461.621 795.682C455.291 800.071 449.315 805.521 445.633 812.567C438.732 825.788 442.015 844.442 451.41 855.823C458.465 864.365 480.909 874.122 492 873.805C506.563 873.388 525.462 862.978 534.594 851.851Z"/>
<path fill="#141413" d="M610.296 303.744C606.76 307.752 603.023 310.599 597.755 312.196C595.95 312.74 593.837 312.277 592.25 313.075C591.298 313.556 587.634 316.884 586.61 317.845C571.33 332.209 559.305 359.813 548.913 378.458C547.924 380.235 543.218 386.32 542.973 387.372C542.764 388.261 545.585 394.064 546.356 395.035C549.303 398.762 555.632 407.032 558.979 409.725C566.079 415.447 566.016 412.446 573.352 410.777C592.822 406.361 615.547 403.55 635.479 402.28C655.411 401.011 677.692 396.739 697.642 391.77C698.667 391.516 703.21 391.081 703.437 390.9C703.591 390.782 719.361 373.271 729.962 374.159C737.498 374.785 746.938 382.094 750.71 388.487C766.834 415.828 731.476 440.159 708.434 419.383C707.019 418.105 701.351 411.213 700.417 410.859C698.921 410.297 688.184 412.419 685.464 412.682C671.399 414.015 657.043 415.103 642.951 416.636C621.913 418.93 598.988 424.28 577.696 427.454C574.739 427.898 568.654 427.309 566.451 428.569C565.172 429.304 560.665 434.292 560.157 435.615C559.722 436.758 557.936 444.675 557.773 446.071C557.646 447.105 557.555 450.542 558.326 451.113C566.986 454.487 576.281 456.582 584.905 459.946C597.719 464.943 608.718 470.773 622.23 475.398C625.35 476.468 630.237 480.721 632.214 481.22C638.317 482.762 647.322 478.59 654.94 479.524C672.895 481.719 681.419 500.672 672.623 516.414C662.149 535.149 630.673 526.952 627.961 507.7C627.553 504.816 628.07 500.245 627.299 497.498C626.039 493.027 618.05 491.295 613.933 489.255C608.247 486.443 600.176 484.412 593.538 481.846C588.142 479.76 582.475 476.695 576.988 474.682C572.563 473.059 557.074 467.563 553.438 467.717C543.898 468.098 541.132 472.805 535.183 478.581C525.68 487.813 511.016 491.059 497.695 491.259C495.355 491.295 492.653 490.17 490.386 490.832C490.032 490.932 484.41 493.816 483.866 494.188C477.463 498.532 474.154 508.552 470.173 515.072C465.303 523.043 459.78 530.96 454.784 538.713C452.172 542.776 444.935 551.717 443.53 555.662C443.294 556.333 444.464 562.626 444.691 563.95C445.706 569.935 446.912 571.196 445.09 577.925C439.712 597.757 419.553 603.107 403.103 591.69C393.917 585.315 386.59 567.895 393.264 557.738C394.488 555.88 396.746 554.456 398.116 552.715C400.455 549.731 402.142 545.669 405.778 543.583C412.353 539.82 419.698 543.673 425.81 541.379C428.368 540.418 432.802 530.552 434.48 527.822C441.571 516.251 449.624 504.816 456.978 493.616C459.254 490.143 464.623 484.884 462.247 480.467C462.12 480.223 448.109 467.962 443.847 457.126C442.414 453.48 441.109 449.472 440.537 445.591C439.168 436.404 442.85 427.771 433.219 421.913C431.079 420.616 410.367 415.248 406.25 414.205C399.313 412.446 392.194 412.02 385.166 410.587C357.471 404.946 329.405 397.656 302.136 390.346C298.282 389.313 293.422 386.792 289.405 388.741C288.779 389.041 275.476 399.152 264.43 396.458C254.9 394.137 249.014 390.619 246.747 380.616C244.435 370.369 248.225 349.965 259.153 345.658C263.614 343.899 277.906 345.467 282.349 347.879C284.762 349.185 291.1 356.132 292.261 358.725C293.132 360.675 293.141 364.239 294.002 365.626C294.818 366.923 297.802 368.619 298.772 369.498C299.552 370.206 313.826 373.915 318.16 374.812C344.458 380.262 371.319 387.336 397.136 394.654C403.085 396.341 407.465 397.012 413.151 398.408C422.936 400.811 435.731 407.286 445.389 402.407C453.46 398.326 452.834 393.992 457.196 388.034C458.502 386.257 463.398 383.001 463.707 382.448C463.915 382.076 464.922 376.517 464.868 375.901C464.822 375.456 462.002 369.562 461.567 368.791C457.504 361.682 450.576 351.897 445.77 345.068C444.065 342.647 441.743 340.788 440.41 338.077C435.495 336.889 429.891 338.303 425.275 335.918C419.843 333.116 415.373 323.032 414.928 317.12C414.611 312.867 415.409 301.821 418.111 298.584C424.078 291.438 437.871 288.564 446.024 292.953C455.663 298.14 462.446 310.609 459.254 321.427C458.375 324.411 455.436 327.376 455.146 330.205C459.816 335.782 463.444 342.012 467.579 347.952C468.549 349.34 470.544 350.827 471.261 351.824C474.825 356.812 479.885 371.085 485.997 371.929C489.352 372.391 494.612 371.131 498.166 371.203C502.066 371.285 507.044 372.137 510.971 372.745C513.283 373.098 517.029 374.803 519.459 374.604C519.885 374.568 526.84 371.194 527.122 370.868C527.657 370.269 528.255 367.83 529.144 366.587C536.362 356.467 546.519 345.504 552.939 335.021C556.24 329.625 558.598 322.343 561.772 316.712C563.912 312.903 571.883 303.037 571.937 299.745C571.955 298.539 570.568 294.476 570.396 292.236C569.262 277.174 577.251 260.941 594.508 263.571C617.759 267.117 626.492 285.39 610.305 303.726L610.296 303.744ZM519.985 399.052C516.439 396.241 505.176 389.041 501.086 388.551C499.082 388.306 496.824 388.769 494.847 389.14C491.184 389.82 480.828 392.332 478.189 394.219C474.707 396.722 460.905 416.327 459.508 420.49C453.369 438.853 460.814 464.816 480.139 471.707C491.982 475.933 498.928 475.788 510.753 471.707C522.76 467.563 528.373 459.438 534.077 448.592C546.156 425.613 538.04 413.335 519.976 399.043L519.985 399.052Z"/>
</svg>